<svg width="52" height="52" viewBox="0 0 52 52" fill="none" xmlns="http://www.w3.org/2000/svg">
<g clip-path="url(#clip0_3635_68529)">
<path d="M51.7583 0C23.1707 0 0 23.1707 0 51.7583H51.7583V0Z" fill="#333333"/>
<path d="M20.3303 40.3244C20.0177 40.637 19.6717 40.8759 19.2921 41.0411C18.9081 41.2018 18.5018 41.2777 18.0732 41.2688C17.649 41.2554 17.2181 41.1505 16.7805 40.954C16.3474 40.7531 15.9254 40.4472 15.5147 40.0364C15.1039 39.6256 14.8002 39.2014 14.6038 38.7639C14.4028 38.3218 14.2957 37.8842 14.2823 37.4511C14.2734 37.0135 14.3493 36.5983 14.51 36.2054C14.6752 35.808 14.9141 35.453 15.2267 35.1404C15.5437 34.8234 15.8897 34.6068 16.2648 34.4907C16.6399 34.3657 16.9904 34.3099 17.3163 34.3233L17.4302 35.4686C17.1801 35.4686 16.9413 35.5066 16.7135 35.5825C16.4903 35.6539 16.2849 35.7834 16.0974 35.9709C15.8473 36.221 15.691 36.5157 15.6285 36.855C15.566 37.1854 15.6062 37.5337 15.7491 37.8999C15.892 38.266 16.142 38.6277 16.4992 38.9849C16.8609 39.3466 17.2226 39.6055 17.5842 39.7618C17.9459 39.9092 18.292 39.9561 18.6224 39.9025C18.9573 39.8444 19.2542 39.6859 19.5132 39.4269C19.7275 39.2126 19.8726 38.9782 19.9485 38.7237C20.0244 38.4602 20.0557 38.1923 20.0423 37.92L21.1876 38.007C21.2233 38.4535 21.172 38.871 21.0335 39.2595C20.8907 39.6435 20.6562 39.9985 20.3303 40.3244ZM22.6159 37.8513L17.6529 32.8883L18.6441 31.8971L20.6066 33.8595L22.4819 31.9841L20.5195 30.0217L21.5041 29.0372L26.467 34.0001L25.4825 34.9847L23.3392 32.8414L21.4639 34.7168L23.6071 36.8601L22.6159 37.8513ZM27.6849 32.7823L22.7219 27.8193L25.7627 24.7785L26.5932 25.6091L24.5437 27.6585L25.689 28.8038L27.4237 27.0691L28.2542 27.8997L26.5195 29.6344L27.8457 30.9605L29.9688 28.8373L30.7993 29.6678L27.6849 32.7823ZM33.9153 26.7394C33.6028 27.0519 33.2567 27.2908 32.8772 27.456C32.4932 27.6168 32.0869 27.6927 31.6582 27.6838C31.234 27.6704 30.8031 27.5654 30.3656 27.369C29.9324 27.168 29.5105 26.8622 29.0997 26.4514C28.6889 26.0406 28.3853 25.6164 28.1888 25.1788C27.9879 24.7368 27.8807 24.2992 27.8673 23.8661C27.8584 23.4285 27.9343 23.0132 28.095 22.6203C28.2603 22.2229 28.4991 21.8679 28.8117 21.5554C29.1287 21.2384 29.4748 21.0218 29.8498 20.9057C30.2249 20.7807 30.5754 20.7249 30.9014 20.7383L31.0152 21.8836C30.7652 21.8836 30.5263 21.9215 30.2986 21.9974C30.0753 22.0689 29.8699 22.1984 29.6824 22.3859C29.4323 22.6359 29.2761 22.9306 29.2136 23.27C29.151 23.6004 29.1912 23.9487 29.3341 24.3148C29.477 24.681 29.727 25.0426 30.0843 25.3999C30.4459 25.7615 30.8076 26.0205 31.1693 26.1768C31.531 26.3241 31.877 26.371 32.2074 26.3174C32.5423 26.2594 32.8392 26.1009 33.0982 25.8419C33.3125 25.6276 33.4577 25.3932 33.5336 25.1386C33.6095 24.8752 33.6407 24.6073 33.6273 24.3349L34.7726 24.422C34.8083 24.8685 34.757 25.286 34.6186 25.6745C34.4757 26.0585 34.2413 26.4134 33.9153 26.7394ZM36.2009 24.2663L31.2379 19.3033L32.2292 18.312L34.3858 20.4687L34.4059 20.4486L33.8902 16.651L34.9819 15.5593L35.424 19.0287L40.2128 20.2544L39.1278 21.3394L35.6115 20.395L35.799 21.8819L37.1922 23.275L36.2009 24.2663Z" fill="white"/>
<path d="M32.9028 32.9023L42.4813 42.4809" stroke="white" stroke-width="1.33199" stroke-miterlimit="10"/>
<path d="M42.4815 33.6953V42.4805H33.6963" stroke="white" stroke-width="1.33199" stroke-miterlimit="10"/>
</g>
<defs>
<clipPath id="clip0_3635_68529">
<rect width="51.7583" height="51.7583" fill="white"/>
</clipPath>
</defs>
</svg>
