<svg width="513" height="108" viewBox="0 0 513 108" fill="none" xmlns="http://www.w3.org/2000/svg">
<mask id="mask0_3635_68333" style="mask-type:alpha" maskUnits="userSpaceOnUse" x="0" y="0" width="455" height="54">
<rect width="454.459" height="53.9189" fill="#D9D9D9"/>
</mask>
<g mask="url(#mask0_3635_68333)">
<path d="M21.0271 8.83594H35.3868L37.4864 28.9524H37.8425C38.3674 27.2682 38.8923 25.4905 39.6234 23.8812L46.3346 8.83594H60.5444L60.7693 47.1601H47.272L48.7154 26.1642H48.453C48.0031 27.4366 47.5344 28.7466 46.9345 29.9816L38.6486 47.1601H30.5127L28.0945 30.9547C27.9445 29.3267 27.832 27.8109 27.982 26.1829H27.5321C27.1946 27.6986 26.8384 29.2892 26.4448 30.805L22.2081 47.1601H8.72949L21.0271 8.83594Z" fill="url(#paint0_linear_3635_68333)"/>
<path d="M69.074 8.83594H83.0213L76.9287 47.1601H62.9814L69.074 8.83594Z" fill="url(#paint1_linear_3635_68333)"/>
<path d="M89.5826 8.83594H103.792C116.671 8.83594 125.651 14.4685 123.42 28.5594C121.62 39.9369 112.416 47.1601 101.168 47.1601H83.5088L89.5826 8.83594ZM99.2745 35.6704H100.137C104.767 35.6704 108.666 33.5371 109.472 28.5033C110.335 23.1139 107.579 20.831 102.499 20.831H101.636L99.2745 35.6704Z" fill="url(#paint2_linear_3635_68333)"/>
<path d="M169.592 28.088C167.642 40.3825 156.938 47.7554 145.24 47.7554C133.543 47.7554 125.182 40.3825 127.131 28.088C129.043 16.0369 139.86 8.21484 151.52 8.21484C163.181 8.21484 171.504 16.0369 169.592 28.088ZM141.154 28.2939C140.46 32.6727 142.934 35.6668 147.171 35.6668C151.408 35.6668 154.82 32.6727 155.513 28.2939C156.151 24.2332 153.957 20.8274 149.514 20.8274C145.072 20.8274 141.791 24.2332 141.154 28.2939Z" fill="url(#paint3_linear_3635_68333)"/>
<path d="M177.578 8.83594H194.431C203.092 8.83594 209.84 12.5037 208.303 22.1596C207.385 27.9606 204.76 30.3933 199.286 32.1149L199.23 32.4143C199.849 32.9757 200.617 33.5745 201.198 34.6973L207.572 47.1414H191.488L187.326 34.847H187.064L185.114 47.1414H171.467L177.578 8.83594ZM188.526 25.8086H189.501C191.788 25.8086 194.131 25.4531 194.6 22.6087C195.068 19.6708 193.044 19.2965 190.644 19.2965H189.576L188.544 25.8086H188.526Z" fill="url(#paint4_linear_3635_68333)"/>
<path d="M216.214 8.83594H230.161L224.069 47.1601H210.122L216.214 8.83594Z" fill="url(#paint5_linear_3635_68333)"/>
<path d="M274.703 24.5887C273.615 30.8388 272.772 36.0785 267.467 40.9439C262.686 45.3601 256.05 47.7554 250.089 47.7554C238.372 47.7554 230.049 40.5322 232.017 28.2377C234.004 15.7375 244.409 8.21484 256.481 8.21484C263.155 8.21484 271.797 11.5083 273.747 18.0766L259.949 22.8484C259.181 20.921 257.362 19.8917 255.131 19.8917C250.145 19.8917 246.714 24.1583 245.983 28.7804C245.308 32.9908 247.333 36.958 251.87 36.958C254.063 36.958 257.025 35.9475 258.056 33.6084H251.738L253.182 24.57H274.721L274.703 24.5887Z" fill="url(#paint6_linear_3635_68333)"/>
<path d="M287.188 47.1414H272.416L291.855 8.83594H307.284L314.895 47.1601H300.123L299.598 42.3883H289.062L287.188 47.1601V47.1414ZM298.604 33.2751L298.042 26.5197C297.892 24.8917 297.911 23.2075 297.911 21.5795H297.404L292.999 33.2751H298.604Z" fill="url(#paint7_linear_3635_68333)"/>
<path d="M361.892 28.088C359.942 40.3825 349.238 47.7554 337.54 47.7554C325.843 47.7554 317.482 40.3825 319.431 28.088C321.343 16.0369 332.16 8.21484 343.82 8.21484C355.481 8.21484 363.804 16.0369 361.892 28.088ZM333.435 28.2939C332.741 32.6727 335.216 35.6668 339.452 35.6668C343.689 35.6668 347.101 32.6727 347.795 28.2939C348.432 24.2332 346.239 20.8274 341.796 20.8274C337.353 20.8274 334.072 24.2332 333.435 28.2939Z" fill="url(#paint8_linear_3635_68333)"/>
<path d="M369.971 8.83594H383.563L380.619 25.4531H380.919C381.482 23.8812 382.55 22.4964 383.544 21.1304L392.223 8.83594H407.445L392.467 27.4928L402.628 47.1601H386.45L381.669 35.5768C381.088 34.0985 380.095 32.6763 380.038 31.1044H379.738L377.489 47.1601H363.898L369.99 8.83594H369.971Z" fill="url(#paint9_linear_3635_68333)"/>
<path d="M416.875 47.1414H402.103L421.543 8.83594H436.971L444.582 47.1601H429.81L429.303 42.3883H418.768L416.893 47.1601L416.875 47.1414ZM428.291 33.2751L427.729 26.5197C427.579 24.8917 427.598 23.2075 427.598 21.5795H427.091L422.686 33.2751H428.291Z" fill="url(#paint10_linear_3635_68333)"/>
</g>
<mask id="mask1_3635_68333" style="mask-type:alpha" maskUnits="userSpaceOnUse" x="0" y="53" width="513" height="55">
<rect y="53.918" width="513" height="53.9189" fill="#D9D9D9"/>
</mask>
<g mask="url(#mask1_3635_68333)">
<path d="M10.6036 62.7539H24.8133C37.692 62.7539 46.6715 68.3865 44.4407 82.4774C42.6411 93.8549 33.4366 101.078 22.1888 101.078H4.52979L10.6223 62.7539H10.6036ZM20.2955 89.5883H21.1578C25.7881 89.5883 29.6873 87.455 30.4934 82.4213C31.3558 77.0319 28.6188 74.7489 23.5198 74.7489H22.6575L20.2955 89.5883Z" fill="url(#paint11_linear_3635_68333)"/>
<path d="M52.5953 62.7531H69.4482C78.109 62.7531 84.8577 66.4208 83.3205 76.0767C82.402 81.8778 79.7774 84.3104 74.3035 86.032L74.2473 86.3315C74.8659 86.8928 75.6346 87.4917 76.2344 88.6144L82.6082 101.059H66.5238L62.3621 88.7641H62.1184L60.1688 101.059H46.5215L52.614 62.7344L52.5953 62.7531ZM63.5431 79.7258H64.518C66.805 79.7258 69.1483 79.3702 69.5982 76.5258C70.0669 73.5879 68.0422 73.2136 65.6427 73.2136H64.5742L63.5431 79.7258Z" fill="url(#paint12_linear_3635_68333)"/>
<path d="M91.2317 62.7539H105.179L99.0864 101.078H85.1392L91.2317 62.7539Z" fill="url(#paint13_linear_3635_68333)"/>
<path d="M149.964 62.7539L129.005 101.078H117.195L108.422 62.7539H122.988L125.312 80.1944C125.575 82.0657 125.687 83.9557 125.369 85.8832H125.669C125.968 83.9557 126.681 82.0657 127.543 80.1944L135.398 62.7539H149.964Z" fill="url(#paint14_linear_3635_68333)"/>
<path d="M153.17 62.7539H167.117L161.024 101.078H147.077L153.17 62.7539Z" fill="url(#paint15_linear_3635_68333)"/>
<path d="M173.378 62.7539H186.763L195.911 83.9931H196.324C196.267 80.7932 196.192 77.481 196.699 74.2437L198.517 62.7539H211.864L205.772 101.078H192.424L183.351 80.9616H182.939C182.976 83.6002 182.995 86.089 182.583 88.634L180.614 101.078H167.267L173.359 62.7539H173.378Z" fill="url(#paint16_linear_3635_68333)"/>
<path d="M256.03 78.5067C254.943 84.7568 254.1 89.9964 248.794 94.8618C244.014 99.2781 237.378 101.673 231.417 101.673C219.7 101.673 211.377 94.4501 213.345 82.1557C215.332 69.6554 225.736 62.1328 237.809 62.1328C244.483 62.1328 253.125 65.4263 255.074 71.9946L241.277 76.7664C240.509 74.8389 238.69 73.8097 236.441 73.8097C231.454 73.8097 228.023 78.0763 227.292 82.6984C226.617 86.9088 228.642 90.876 233.179 90.876C235.372 90.876 238.334 89.8655 239.365 87.5263H233.048L234.491 78.488H256.03V78.5067Z" fill="url(#paint17_linear_3635_68333)"/>
<path d="M282.856 87.3392L283.475 87.9006C285.668 89.828 288.405 91.3999 291.63 91.3999C292.998 91.3999 295.285 90.8385 295.548 89.1169C295.829 87.3953 294.011 87.2456 292.773 86.9837L290.055 86.4784C284.769 85.5053 280.682 82.3054 281.638 76.3173C283.081 67.2227 292.192 62.1328 300.534 62.1328C304.921 62.1328 308.764 63.1995 312.176 65.4824L306.852 75.288C304.715 73.66 302.221 72.3875 299.222 72.3875C298.003 72.3875 296.148 72.8366 295.904 74.4085C295.679 75.8307 297.385 76.0366 298.397 76.2985L301.434 77.0096C307.133 78.3383 310.901 81.482 309.87 87.9942C308.408 97.1448 299.353 101.673 291.049 101.673C286.212 101.673 280.813 100.345 276.839 98.174L282.838 87.3392H282.856Z" fill="url(#paint18_linear_3635_68333)"/>
<path d="M344.213 78.3017C342.301 76.2245 339.789 74.4281 336.621 74.4281C332.441 74.4281 328.504 77.7403 327.848 81.8945C327.173 86.105 330.266 89.361 334.447 89.361C337.652 89.361 340.427 87.995 343.014 85.8056L340.333 100.14C337.915 101.206 332.666 101.674 330.154 101.674C319.206 101.674 312.007 93.1785 313.732 82.2688C315.513 71.0784 325.73 62.1523 336.996 62.1523C340.146 62.1523 343.314 62.7137 346.107 63.7242L344.195 78.3017H344.213Z" fill="url(#paint19_linear_3635_68333)"/>
<path d="M351.599 62.7539H365.041L362.997 75.6659H371.546L373.589 62.7539H387.03L380.937 101.078H367.496L369.615 87.7732H361.066L358.948 101.078H345.507L351.599 62.7539Z" fill="url(#paint20_linear_3635_68333)"/>
<path d="M431.309 82.006C429.359 94.3004 418.655 101.673 406.957 101.673C395.26 101.673 386.899 94.3004 388.848 82.006C390.76 69.9548 401.577 62.1328 413.237 62.1328C424.898 62.1328 433.221 69.9548 431.309 82.006ZM402.871 82.2118C402.177 86.5907 404.652 89.5848 408.869 89.5848C413.087 89.5848 416.518 86.5907 417.212 82.2118C417.849 78.1511 415.656 74.7454 411.213 74.7454C406.77 74.7454 403.489 78.1511 402.852 82.2118H402.871Z" fill="url(#paint21_linear_3635_68333)"/>
<path d="M477.331 82.006C475.381 94.3004 464.677 101.673 452.979 101.673C441.282 101.673 432.921 94.3004 434.871 82.006C436.783 69.9548 447.599 62.1328 459.26 62.1328C470.92 62.1328 479.243 69.9548 477.331 82.006ZM448.874 82.2118C448.18 86.5907 450.655 89.5848 454.873 89.5848C459.091 89.5848 462.521 86.5907 463.215 82.2118C463.871 78.1511 461.659 74.7454 457.216 74.7454C452.773 74.7454 449.493 78.1511 448.855 82.2118H448.874Z" fill="url(#paint22_linear_3635_68333)"/>
<path d="M485.317 62.7539H499.264L495.121 88.7837H506.838L504.888 101.078H479.224L485.317 62.7539Z" fill="url(#paint23_linear_3635_68333)"/>
</g>
<defs>
<linearGradient id="paint0_linear_3635_68333" x1="8.72949" y1="27.998" x2="60.7693" y2="27.998" gradientUnits="userSpaceOnUse">
<stop stop-color="#00A29A"/>
<stop offset="1" stop-color="#00C4BB"/>
</linearGradient>
<linearGradient id="paint1_linear_3635_68333" x1="62.9814" y1="27.998" x2="83.0213" y2="27.998" gradientUnits="userSpaceOnUse">
<stop stop-color="#00A29A"/>
<stop offset="1" stop-color="#00C4BB"/>
</linearGradient>
<linearGradient id="paint2_linear_3635_68333" x1="83.5088" y1="27.998" x2="123.76" y2="27.998" gradientUnits="userSpaceOnUse">
<stop stop-color="#00A29A"/>
<stop offset="1" stop-color="#00C4BB"/>
</linearGradient>
<linearGradient id="paint3_linear_3635_68333" x1="126.849" y1="27.9851" x2="169.866" y2="27.9851" gradientUnits="userSpaceOnUse">
<stop stop-color="#00A29A"/>
<stop offset="1" stop-color="#00C4BB"/>
</linearGradient>
<linearGradient id="paint4_linear_3635_68333" x1="171.467" y1="27.9887" x2="208.522" y2="27.9887" gradientUnits="userSpaceOnUse">
<stop stop-color="#00A29A"/>
<stop offset="1" stop-color="#00C4BB"/>
</linearGradient>
<linearGradient id="paint5_linear_3635_68333" x1="210.122" y1="27.998" x2="230.161" y2="27.998" gradientUnits="userSpaceOnUse">
<stop stop-color="#00A29A"/>
<stop offset="1" stop-color="#00C4BB"/>
</linearGradient>
<linearGradient id="paint6_linear_3635_68333" x1="231.729" y1="27.9851" x2="274.721" y2="27.9851" gradientUnits="userSpaceOnUse">
<stop stop-color="#00A29A"/>
<stop offset="1" stop-color="#00C4BB"/>
</linearGradient>
<linearGradient id="paint7_linear_3635_68333" x1="272.416" y1="27.998" x2="314.895" y2="27.998" gradientUnits="userSpaceOnUse">
<stop stop-color="#00A29A"/>
<stop offset="1" stop-color="#00C4BB"/>
</linearGradient>
<linearGradient id="paint8_linear_3635_68333" x1="319.149" y1="27.9851" x2="362.166" y2="27.9851" gradientUnits="userSpaceOnUse">
<stop stop-color="#00A29A"/>
<stop offset="1" stop-color="#00C4BB"/>
</linearGradient>
<linearGradient id="paint9_linear_3635_68333" x1="363.898" y1="27.998" x2="407.445" y2="27.998" gradientUnits="userSpaceOnUse">
<stop stop-color="#00A29A"/>
<stop offset="1" stop-color="#00C4BB"/>
</linearGradient>
<linearGradient id="paint10_linear_3635_68333" x1="402.103" y1="27.998" x2="444.582" y2="27.998" gradientUnits="userSpaceOnUse">
<stop stop-color="#00A29A"/>
<stop offset="1" stop-color="#00C4BB"/>
</linearGradient>
<linearGradient id="paint11_linear_3635_68333" x1="4.52979" y1="81.916" x2="44.7812" y2="81.916" gradientUnits="userSpaceOnUse">
<stop stop-color="#00A29A"/>
<stop offset="1" stop-color="#00C4BB"/>
</linearGradient>
<linearGradient id="paint12_linear_3635_68333" x1="46.5215" y1="81.8965" x2="83.5398" y2="81.8965" gradientUnits="userSpaceOnUse">
<stop stop-color="#00A29A"/>
<stop offset="1" stop-color="#00C4BB"/>
</linearGradient>
<linearGradient id="paint13_linear_3635_68333" x1="85.1392" y1="81.916" x2="105.179" y2="81.916" gradientUnits="userSpaceOnUse">
<stop stop-color="#00A29A"/>
<stop offset="1" stop-color="#00C4BB"/>
</linearGradient>
<linearGradient id="paint14_linear_3635_68333" x1="108.422" y1="81.916" x2="149.964" y2="81.916" gradientUnits="userSpaceOnUse">
<stop stop-color="#00A29A"/>
<stop offset="1" stop-color="#00C4BB"/>
</linearGradient>
<linearGradient id="paint15_linear_3635_68333" x1="147.077" y1="81.916" x2="167.117" y2="81.916" gradientUnits="userSpaceOnUse">
<stop stop-color="#00A29A"/>
<stop offset="1" stop-color="#00C4BB"/>
</linearGradient>
<linearGradient id="paint16_linear_3635_68333" x1="167.267" y1="81.916" x2="211.864" y2="81.916" gradientUnits="userSpaceOnUse">
<stop stop-color="#00A29A"/>
<stop offset="1" stop-color="#00C4BB"/>
</linearGradient>
<linearGradient id="paint17_linear_3635_68333" x1="213.056" y1="81.9031" x2="256.03" y2="81.9031" gradientUnits="userSpaceOnUse">
<stop stop-color="#00A29A"/>
<stop offset="1" stop-color="#00C4BB"/>
</linearGradient>
<linearGradient id="paint18_linear_3635_68333" x1="276.839" y1="81.9031" x2="312.176" y2="81.9031" gradientUnits="userSpaceOnUse">
<stop stop-color="#00A29A"/>
<stop offset="1" stop-color="#00C4BB"/>
</linearGradient>
<linearGradient id="paint19_linear_3635_68333" x1="313.477" y1="81.9133" x2="346.107" y2="81.9133" gradientUnits="userSpaceOnUse">
<stop stop-color="#00A29A"/>
<stop offset="1" stop-color="#00C4BB"/>
</linearGradient>
<linearGradient id="paint20_linear_3635_68333" x1="345.507" y1="81.916" x2="387.03" y2="81.916" gradientUnits="userSpaceOnUse">
<stop stop-color="#00A29A"/>
<stop offset="1" stop-color="#00C4BB"/>
</linearGradient>
<linearGradient id="paint21_linear_3635_68333" x1="388.566" y1="81.9031" x2="431.583" y2="81.9031" gradientUnits="userSpaceOnUse">
<stop stop-color="#00A29A"/>
<stop offset="1" stop-color="#00C4BB"/>
</linearGradient>
<linearGradient id="paint22_linear_3635_68333" x1="434.588" y1="81.9031" x2="477.605" y2="81.9031" gradientUnits="userSpaceOnUse">
<stop stop-color="#00A29A"/>
<stop offset="1" stop-color="#00C4BB"/>
</linearGradient>
<linearGradient id="paint23_linear_3635_68333" x1="479.224" y1="81.916" x2="506.838" y2="81.916" gradientUnits="userSpaceOnUse">
<stop stop-color="#00A29A"/>
<stop offset="1" stop-color="#00C4BB"/>
</linearGradient>
</defs>
</svg>
