<svg width="49" height="49" viewBox="0 0 49 49" fill="none" xmlns="http://www.w3.org/2000/svg">
<path d="M11.2862 25.799H9.67383V22.5742H11.2862C11.7138 22.5742 12.1239 22.7441 12.4263 23.0465C12.7287 23.3489 12.8986 23.759 12.8986 24.1866C12.8986 24.6142 12.7287 25.0243 12.4263 25.3267C12.1239 25.6291 11.7138 25.799 11.2862 25.799ZM22.5728 32.2485V22.5742H24.1852C24.6128 22.5742 25.0229 22.7441 25.3253 23.0465C25.6277 23.3489 25.7976 23.759 25.7976 24.1866V30.6361C25.7976 31.0637 25.6277 31.4738 25.3253 31.7762C25.0229 32.0786 24.6128 32.2485 24.1852 32.2485H22.5728Z" fill="white"/>
<path fill-rule="evenodd" clip-rule="evenodd" d="M3.22461 4.83712C3.22461 3.55423 3.73423 2.32389 4.64137 1.41676C5.5485 0.509623 6.77884 0 8.06173 0L34.5272 0L45.1463 10.6191V43.5341C45.1463 44.8169 44.6367 46.0473 43.7295 46.9544C42.8224 47.8616 41.5921 48.3712 40.3092 48.3712H8.06173C6.77884 48.3712 5.5485 47.8616 4.64137 46.9544C3.73423 46.0473 3.22461 44.8169 3.22461 43.5341V4.83712ZM11.2865 19.3485H6.44935V35.4722H9.6741V29.0227H11.2865C12.5694 29.0227 13.7997 28.5131 14.7068 27.606C15.614 26.6988 16.1236 25.4685 16.1236 24.1856C16.1236 22.9027 15.614 21.6724 14.7068 20.7652C13.7997 19.8581 12.5694 19.3485 11.2865 19.3485ZM24.1855 19.3485H19.3483V35.4722H24.1855C25.4683 35.4722 26.6987 34.9626 27.6058 34.0554C28.513 33.1483 29.0226 31.918 29.0226 30.6351V24.1856C29.0226 22.9027 28.513 21.6724 27.6058 20.7652C26.6987 19.8581 25.4683 19.3485 24.1855 19.3485ZM32.2473 35.4722V19.3485H41.9216V22.5732H35.4721V25.798H38.6968V29.0227H35.4721V35.4722H32.2473Z" fill="white"/>
</svg>
