<svg width="34" height="30" viewBox="0 0 34 30" fill="none" xmlns="http://www.w3.org/2000/svg">
<path d="M1.66667 0H31.6667C32.1087 0 32.5326 0.175595 32.8452 0.488155C33.1577 0.800716 33.3333 1.22464 33.3333 1.66667V28.3333C33.3333 28.7754 33.1577 29.1993 32.8452 29.5118C32.5326 29.8244 32.1087 30 31.6667 30H1.66667C1.22464 30 0.800716 29.8244 0.488155 29.5118C0.175595 29.1993 0 28.7754 0 28.3333V1.66667C0 1.22464 0.175595 0.800716 0.488155 0.488155C0.800716 0.175595 1.22464 0 1.66667 0ZM18.3333 16.6667V15H23.3333V11.6667H19.0233L22.5583 8.12833L20.2017 5.77167L16.6667 9.30833L13.1317 5.77167L10.7733 8.12833L14.31 11.665H10V14.9983H15V16.665H10V19.9983H15V23.3317H18.3333V19.9983H23.3333V16.665L18.3333 16.6667Z" fill="#241915"/>
</svg>
