<svg width="76" height="76" viewBox="0 0 76 76" fill="none" xmlns="http://www.w3.org/2000/svg">
<path d="M37.561 67.6097C45.5304 67.6097 53.1734 64.4439 58.8086 58.8086C64.4439 53.1734 67.6097 45.5304 67.6097 37.561C67.6097 29.5915 64.4439 21.9485 58.8086 16.3133C53.1734 10.678 45.5304 7.51219 37.561 7.51219C29.5915 7.51219 21.9485 10.678 16.3133 16.3133C10.678 21.9485 7.51219 29.5915 7.51219 37.561C7.51219 45.5304 10.678 53.1734 16.3133 58.8086C21.9485 64.4439 29.5915 67.6097 37.561 67.6097ZM37.561 0C42.4935 0 47.3778 0.971543 51.9349 2.85916C56.492 4.74677 60.6327 7.51349 64.1206 11.0013C67.6084 14.4892 70.3751 18.6299 72.2628 23.187C74.1504 27.7441 75.1219 32.6284 75.1219 37.561C75.1219 47.5227 71.1646 57.0765 64.1206 64.1206C57.0765 71.1646 47.5227 75.1219 37.561 75.1219C16.7897 75.1219 0 58.2195 0 37.561C0 27.5992 3.9573 18.0454 11.0013 11.0013C18.0454 3.9573 27.5992 0 37.561 0ZM39.439 18.7805V38.5L56.3414 48.5288L53.5244 53.1488L33.8049 41.3171V18.7805H39.439Z" fill="#084C49"/>
</svg>
