<svg width="58" height="58" viewBox="0 0 58 58" fill="none" xmlns="http://www.w3.org/2000/svg">
<path d="M9.52734 40.4943C9.52734 41.7577 10.0292 42.9694 10.9226 43.8628C11.816 44.7562 13.0277 45.2581 14.2912 45.2581C15.5546 45.2581 16.7663 44.7562 17.6597 43.8628C18.5531 42.9694 19.055 41.7577 19.055 40.4943C19.055 39.2309 18.5531 38.0192 17.6597 37.1258C16.7663 36.2324 15.5546 35.7305 14.2912 35.7305C13.0277 35.7305 11.816 36.2324 10.9226 37.1258C10.0292 38.0192 9.52734 39.2309 9.52734 40.4943ZM38.1103 40.4943C38.1103 41.7577 38.6122 42.9694 39.5056 43.8628C40.399 44.7562 41.6107 45.2581 42.8741 45.2581C44.1376 45.2581 45.3493 44.7562 46.2427 43.8628C47.1361 42.9694 47.638 41.7577 47.638 40.4943C47.638 39.2309 47.1361 38.0192 46.2427 37.1258C45.3493 36.2324 44.1376 35.7305 42.8741 35.7305C41.6107 35.7305 40.399 36.2324 39.5056 37.1258C38.6122 38.0192 38.1103 39.2309 38.1103 40.4943Z" stroke="#333333" stroke-width="4.76383" stroke-linecap="round" stroke-linejoin="round"/>
<path d="M9.52555 40.4931H4.76172V14.2921C4.76172 13.6603 5.01267 13.0545 5.45937 12.6078C5.90606 12.1611 6.51191 11.9102 7.14363 11.9102H40.4904C43.649 11.9102 46.6783 13.6668 48.9118 16.7937C51.1452 19.9206 52.4 24.1615 52.4 28.5836V40.4931H47.6362M38.1085 40.4931H19.0532" stroke="#333333" stroke-width="4.76383" stroke-linecap="round" stroke-linejoin="round"/>
<path d="M38.1085 11.9102L41.6814 28.5836H52.4M4.76172 23.8197H40.4904M16.6713 11.9102V23.8197M28.5809 11.9102V23.8197" stroke="#333333" stroke-width="4.76383" stroke-linecap="round" stroke-linejoin="round"/>
</svg>
