<svg width="36" height="59" viewBox="0 0 36 59" fill="none" xmlns="http://www.w3.org/2000/svg">
<path d="M29.3159 0H5.86317C4.30816 0 2.81684 0.617725 1.71728 1.71728C0.617725 2.81684 0 4.30816 0 5.86317V52.7686C0 54.3236 0.617725 55.8149 1.71728 56.9145C2.81684 58.014 4.30816 58.6317 5.86317 58.6317H29.3159C30.8709 58.6317 32.3622 58.014 33.4618 56.9145C34.5613 55.8149 35.179 54.3236 35.179 52.7686V5.86317C35.179 4.30816 34.5613 2.81684 33.4618 1.71728C32.3622 0.617725 30.8709 0 29.3159 0ZM20.5211 55.7001H14.6579V52.7686H20.5211V55.7001ZM29.3159 49.837H5.86317V8.79476H29.3159V49.837Z" fill="white"/>
</svg>
