<svg width="62" height="62" viewBox="0 0 62 62" fill="none" xmlns="http://www.w3.org/2000/svg">
<path d="M54.248 8.73926C55.1133 8.73952 55.8164 9.44263 55.8164 10.3105V51.6621C55.8118 52.0771 55.6449 52.4738 55.3516 52.7676C55.0565 53.0629 54.6567 53.231 54.2393 53.2344H7.72656C7.31012 53.2339 6.91054 53.0681 6.61621 52.7734C6.32186 52.4788 6.15723 52.0786 6.15723 51.6621V10.3174C6.16014 9.89996 6.32705 9.5004 6.62207 9.20508C6.88022 8.9467 7.21803 8.78635 7.57812 8.74805L7.7334 8.73926H54.248ZM26.9541 20.5654C26.5883 20.5475 26.2245 20.6284 25.9014 20.8008C25.5781 20.9733 25.3079 21.2309 25.1191 21.5449C24.9304 21.859 24.8298 22.2186 24.8291 22.585V39.3887C24.8298 39.7549 24.9305 40.1138 25.1191 40.4277C25.3079 40.7418 25.5781 40.9993 25.9014 41.1719C26.2245 41.3443 26.5883 41.4261 26.9541 41.4082C27.3196 41.3903 27.673 41.2723 27.9775 41.0693L27.9785 41.0703L40.5771 32.6719C40.8547 32.4871 41.0827 32.2372 41.2402 31.9434C41.3978 31.6492 41.4805 31.3201 41.4805 30.9863C41.4805 30.6527 41.3977 30.3244 41.2402 30.0303C41.0826 29.7361 40.854 29.4847 40.5762 29.2998L27.9795 20.9033C27.6747 20.7 27.3201 20.5834 26.9541 20.5654Z" fill="url(#paint0_linear_5481_8382)" stroke="white" stroke-width="1.98559"/>
<defs>
<linearGradient id="paint0_linear_5481_8382" x1="5.16406" y1="30.9864" x2="56.8092" y2="30.9864" gradientUnits="userSpaceOnUse">
<stop stop-color="#00A29A"/>
<stop offset="1" stop-color="#00C4BB"/>
</linearGradient>
</defs>
</svg>
